<svg xmlns="http://www.w3.org/2000/svg" shape-rendering="geometricPrecision" text-rendering="geometricPrecision" image-rendering="optimizeQuality" fill-rule="evenodd" clip-rule="evenodd" viewBox="0 0 512 278.862"><path fill-rule="nonzero" d="M0 255.999C0 185.311 28.655 121.31 74.982 74.982 121.311 28.655 185.311 0 256.001 0c55.455 0 106.794 17.638 148.714 47.607l-26.682 22.017c-29.757-19.521-64.47-32.109-101.845-35.468v29.067h-40.377V34.156c-45.225 4.063-86.554 21.643-119.916 48.665l24.793 24.794-28.549 28.549-25.202-25.202c-33.462 38.969-53.685 89.641-53.685 145.037H0zM450.497 89.547C488.837 134.304 512 192.448 512 255.999h-33.252c0-53.029-18.531-101.73-49.467-139.979l21.216-26.473z"/><path fill="#EF1C25" d="M233.323 220.86c-38.904 32.143 13.131 86.245 48.238 40.188L440.179 63.123l-7.427-6.826L233.323 220.86z"/></svg>